<svg width="47" height="48" viewBox="0 0 47 48" fill="none" xmlns="http://www.w3.org/2000/svg">
<path d="M46.25 23.3697C46.2572 27.911 44.9065 32.3508 42.3714 36.1187C40.2807 39.2374 37.4537 41.7928 34.1404 43.5589C30.8271 45.3251 27.1296 46.2475 23.375 46.2447C19.6204 46.2475 15.9229 45.3251 12.6096 43.5589C9.29634 41.7928 6.46931 39.2374 4.37859 36.1187C2.38777 33.1511 1.11992 29.7583 0.676661 26.2124C0.233403 22.6665 0.627072 19.066 1.82611 15.6997C3.02515 12.3333 4.9962 9.29469 7.58126 6.8274C10.1663 4.36011 13.2935 2.53278 16.712 1.49189C20.1306 0.451006 23.7455 0.225522 27.2669 0.833514C30.7883 1.44151 34.1183 2.86606 36.99 4.99299C39.8616 7.11991 42.195 9.89003 43.8031 13.0813C45.4111 16.2726 46.2492 19.7962 46.25 23.3697Z" stroke="#333333"/>
<path d="M27.1876 15.7448C27.1876 16.7559 26.7859 17.7257 26.0709 18.4406C25.3559 19.1556 24.3862 19.5573 23.3751 19.5573V22.099C24.2095 22.099 25.0358 21.9346 25.8067 21.6153C26.5776 21.2959 27.2781 20.8279 27.8681 20.2379C28.4582 19.6478 28.9262 18.9473 29.2455 18.1764C29.5649 17.4055 29.7292 16.5792 29.7292 15.7448H27.1876ZM23.3751 19.5573C22.3639 19.5573 21.3942 19.1556 20.6792 18.4406C19.9642 17.7257 19.5626 16.7559 19.5626 15.7448H17.0209C17.0209 16.5792 17.1852 17.4055 17.5046 18.1764C17.8239 18.9473 18.2919 19.6478 18.882 20.2379C20.0736 21.4295 21.6898 22.099 23.3751 22.099V19.5573ZM19.5626 15.7448C19.5626 14.7337 19.9642 13.7639 20.6792 13.0489C21.3942 12.334 22.3639 11.9323 23.3751 11.9323V9.39062C21.6898 9.39063 20.0736 10.0601 18.882 11.2517C17.6903 12.4434 17.0209 14.0596 17.0209 15.7448H19.5626ZM23.3751 11.9323C24.3862 11.9323 25.3559 12.334 26.0709 13.0489C26.7859 13.7639 27.1876 14.7337 27.1876 15.7448H29.7292C29.7292 14.0596 29.0598 12.4434 27.8681 11.2517C26.6765 10.0601 25.0603 9.39063 23.3751 9.39062V11.9323ZM6.00531 38.2538L4.78531 37.8929L4.5896 38.5562L5.03947 39.0824L6.00531 38.2538ZM40.7448 38.2538L41.7106 39.0824L42.1605 38.5562L41.9623 37.8929L40.7448 38.2538ZM15.7501 32.2656H31.0001V29.724H15.7501V32.2656ZM15.7501 29.724C13.2868 29.7236 10.8893 30.5185 8.91413 31.9903C6.93899 33.4622 5.48925 35.5324 4.78531 37.8929L7.22277 38.6173C7.77068 36.7815 8.8966 35.1716 10.433 34.0272C11.9694 32.8828 13.8343 32.265 15.7501 32.2656V29.724ZM23.3751 44.974C20.2571 44.9773 17.1756 44.3041 14.3431 43.0008C11.5106 41.6976 8.99453 39.7953 6.9686 37.4252L5.03947 39.0824C7.30423 41.7302 10.1163 43.8553 13.2818 45.3112C16.4472 46.7671 19.8908 47.5192 23.3751 47.5156V44.974ZM31.0001 32.2656C32.9162 32.2651 34.7812 32.8833 36.3177 34.0282C37.8542 35.1731 38.9799 36.7835 39.5273 38.6198L41.9623 37.8929C41.2583 35.5324 39.8111 33.4622 37.836 31.9903C35.8608 30.5185 33.4633 29.7236 31.0001 29.724V32.2656ZM39.7815 37.4252C37.7556 39.7953 35.2396 41.6976 32.4071 43.0008C29.5745 44.3041 26.493 44.9773 23.3751 44.974V47.5156C26.8593 47.5192 30.3029 46.7671 33.4684 45.3112C36.6338 43.8553 39.4459 41.7302 41.7106 39.0824L39.7815 37.4252Z" fill="#333333"/>
</svg>
